<mxfile host="app.diagrams.net" modified="2024-06-20T19:43:09.469Z" agent="Mozilla/5.0 (Windows NT 10.0; Win64; x64) AppleWebKit/537.36 (KHTML, like Gecko) Chrome/126.0.0.0 Safari/537.36" etag="SX3O7hgC9ryXwUAZU8nf" version="24.5.5" type="device">
  <diagram name="Page-1" id="ass5I3Z_jlSLPj64t-_6">
    <mxGraphModel dx="667" dy="343" grid="1" gridSize="10" guides="1" tooltips="1" connect="1" arrows="1" fold="1" page="1" pageScale="1" pageWidth="827" pageHeight="950" math="0" shadow="0">
      <root>
        <mxCell id="0" />
        <mxCell id="1" parent="0" />
        <mxCell id="3Qr1FtHoGSZI7Chw_GdT-16" value="" style="rounded=1;arcSize=10;dashed=1;fillColor=none;gradientColor=none;dashPattern=1 1;strokeWidth=2;" vertex="1" parent="1">
          <mxGeometry x="249" y="280" width="480" height="390" as="geometry" />
        </mxCell>
        <mxCell id="3Qr1FtHoGSZI7Chw_GdT-19" value="" style="group" vertex="1" connectable="0" parent="1">
          <mxGeometry x="326" y="315" width="320" height="320" as="geometry" />
        </mxCell>
        <mxCell id="3Qr1FtHoGSZI7Chw_GdT-17" value="" style="rounded=1;arcSize=10;dashed=0;fillColor=none;gradientColor=none;strokeWidth=2;" vertex="1" parent="3Qr1FtHoGSZI7Chw_GdT-19">
          <mxGeometry y="20" width="320" height="300" as="geometry" />
        </mxCell>
        <mxCell id="3Qr1FtHoGSZI7Chw_GdT-18" value="&lt;b&gt;EC2&lt;/b&gt;" style="dashed=0;html=1;shape=mxgraph.aws3.instance;fillColor=#F58536;gradientColor=none;dashed=0;fontColor=#FFFFFF;" vertex="1" parent="3Qr1FtHoGSZI7Chw_GdT-19">
          <mxGeometry x="20" width="40" height="41" as="geometry" />
        </mxCell>
        <mxCell id="3Qr1FtHoGSZI7Chw_GdT-20" value="Wishlist Api" style="rounded=1;whiteSpace=wrap;html=1;" vertex="1" parent="3Qr1FtHoGSZI7Chw_GdT-19">
          <mxGeometry x="170" y="140" width="120" height="60" as="geometry" />
        </mxCell>
        <mxCell id="3Qr1FtHoGSZI7Chw_GdT-24" style="edgeStyle=orthogonalEdgeStyle;rounded=0;orthogonalLoop=1;jettySize=auto;html=1;exitX=1;exitY=0.5;exitDx=0;exitDy=0;endArrow=none;endFill=0;" edge="1" parent="3Qr1FtHoGSZI7Chw_GdT-19" source="3Qr1FtHoGSZI7Chw_GdT-22" target="3Qr1FtHoGSZI7Chw_GdT-20">
          <mxGeometry relative="1" as="geometry" />
        </mxCell>
        <mxCell id="3Qr1FtHoGSZI7Chw_GdT-22" value="Nginx" style="shape=image;verticalLabelPosition=bottom;labelBackgroundColor=default;verticalAlign=top;aspect=fixed;imageAspect=0;image=data:image/png,iVBORw0KGgoAAAANSUhEUgAAAGAAAABgCAYAAADimHc4AAAACXBIWXMAAAsTAAALEwEAmpwYAAAGhUlEQVR4nO2dbWwURRjH12AUYzR+8OUDs7fTWlFQcK/lZg6KQf1AFQl8kAZEg8ZojCGSYBQTo+61h1hB0s4WGwENbyKmxIREAkQI0QCigvJe6N11wALhRUUCRZS2N2avB5Jayu7e7M3u3TzJ87HX3eeX/f9n5+VZRQloqHMrxqq15Sc1gjaWNkaHib6eoolQHJWo71dsB4bOrIQmZpqJOjUTLywjo+8SfX2FG8aYgeqc8hWgRu++XPzLAK4kQWcgwW8NNYbeJPpyCypCdRWzBtWGL15d+D4BZFMjuLWkEVWLvu7Ah5rV+b4K3x+A/0BIf+Ci88AlAOkPnHQe5ABA+gMHnQc8AEh/cK/zgCMA6Q8udB54AKB4/cGFzgOPABSdP7jVeeA1gEL3h1x1HuQJQMH5Ay+dB3kGEHx/4KzzQACAwPqDFzoPRAIIij94qfPABwB86w/50HngIwD+8Yc86jzwGQDh/pBvnQd+BZBvfxCl88DnADz3B9E6DwICgL8/+ETnQYAAcPMHP+k8CCKAXP3Bi2KFasq7ow3jTk1c9PyR8Qufax/VMO4UjEcuiQWA/tBMvByayNBMVGfpOCSoizcIsQBi4fQbq99LJNtSnZRS1js3//Ld8ccXPH0cxPINADXd/+Go23rfu2WkkOD9hQEgFk6v+WHdkb4KT3vlhh0bj8L4CEdPRA7S0Njf/Q/+qOJOaKLDgQfw8srXk3aKT7P5074dv5fORn97CUAj6NQ984bfer0alBA0KdgAYjrbc2jvOScAKKVs657tpy2/8AyAiRbbqYE1goEm7ggsgFBtebfT4tNsrt62hqoxzwC8bbcO0EQtgQWg1ZZ3uQVAKWWz19a3euMB6E27ddAI3l20ACilbOrSV9skAIEAKKXsEXPiCfkECASQTCUvDakbfV5KkCAAlFL2c8uuM329I0gPyBMASilbv3NTuxoLpyUAAU8AzebizctTEoBAAJRSNrP53YSUIIEAKKVsbNPko9IDOAJoaT34lxMAiWSya/i8x/6UJswJwEsrZ6aWfruyzQmEvQf3dWgm2iPfhDkAmLZseptaE05/s3PzMScQwPzoIGiiY3IqggMAYOisJB65tKtl91m7f2dNm4QIroAEX5BzQRwAAENnD9RVnk+kEv/YBXBl7p7gtJyM4wAAGDqrJBNOOgFghbWuKwFwAgAMnb2wfEbKCQCFKTdoBK2Q09GcAABDZx+sbWi1DcCav18yZiAk+Hu5HsAJAIjpbNXWr645PO1nQT0lF2R4ADB6lja37N7WpydccyWrHg+BJr7Gi5pcEXMEABg6K5uDL+47tP+CXQAZU26MVFl7NSWAHJ8AkM1hcx89a01B2AXQMzLCMyQATgCAobMnP3mm3QmALIQFUoI4AQCGzqavmpV0AkBprh4ACV4rPYATABDT2cebPkvYBqAoShlBt2sE7ZUmzAOAkYGQ/vrH9b8qDkKrx9DalihHQTwAGDrT4hWdpU0j73YCIWRGKyGJvmYbWrFszJrmAkDmf5hoSxl54mZH9zY/eosEwAkA7Nnt/KU1D6R4EPIJMK4PIJvvSAAiARCc1hojU+UTIAqAmTmZeFFrjIyUEiQKgGnt/ce/qWTUvdIDBAGAPXlAq3/4DmnC4gAwjeANijHmRjkKEgQA9gxPF0kAAgHAjDHbf+stuPcA66SjXQBTlrxCvQGAurQGPM4tAGjinYEFoBp6ZvugHQCjyYQTngDoORV5zlUbmebqAdaoKrAArLS2kl+v+C2JgxfUWnvngt0AyJpye2kDvs9JDawmGzyKLxSAWhPutg5e9wegqmnyMbe/76QImolOwnqM7dy/9S4BCT4ReABWavERnV9sWf2/rSUHWls6qrL7/PMBIJvdGsHL1AWRB/u88ebqASESfVYz0WlexRcO4HIOnlPZUdU05eikT188bLWqUXud98oTgKsSpayddBrBczWC4tBEnzvfae0RAKthE5ANmxifhk2R8YqrkC3LmC9aWsqmfdgfTV0zbSvj4ZxMk3dCX8kN2ljaMOIhxevwkz/AwOu82/CJP0CRxfdDa3vR/gCLtnm3T/wBFqrOB8UfYEHrvNuQnzDxR8iP+BSBP8Bi1Hk/+QMsWp13G/JThv4I+THPAvEHKHVerD9AqfMcw5CfNA+cP8AgztsUkj/AYhzP+8kfYNGO533iD9Bv8/PF5g9Q6ryYGDQbPaXGw6chQeus1jSCLiPn+Be9EesjgHI29wAAAABJRU5ErkJggg==;" vertex="1" parent="3Qr1FtHoGSZI7Chw_GdT-19">
          <mxGeometry x="30" y="142" width="56" height="56" as="geometry" />
        </mxCell>
        <mxCell id="3Qr1FtHoGSZI7Chw_GdT-21" value="" style="shape=image;verticalLabelPosition=bottom;labelBackgroundColor=default;verticalAlign=top;aspect=fixed;imageAspect=0;image=data:image/svg+xml,PHN2ZyB4bWxucz0iaHR0cDovL3d3dy53My5vcmcvMjAwMC9zdmciIGhlaWdodD0iNDhweCIgd2lkdGg9IjQ4cHgiIHZpZXdCb3g9IjAgMCA0OCA0OCI+PHBhdGggZD0iTTQzLjk4MiwyMy42MzVjMC4wNjktNC4yNjEtMC44OTEtOS4zMjgtMi44OTEtMTUuMjczbC0xLjU2OC00LjY2MmwtMi4xMyw0LjQzMyBjLTAuMTE0LDAuMjM3LTAuMjQ0LDAuNDY5LTAuMzgsMC42OThDMzMuNTE0LDUuODI3LDI4Ljk3NCw0LDI0LDRDMTIuOTU0LDQsNCwxMi45NTQsNCwyNGMwLDExLjA0Niw4Ljk1NCwyMCwyMCwyMHMyMC04Ljk1NCwyMC0yMCBDNDQsMjMuODc3LDQzLjk4NCwyMy43NTgsNDMuOTgyLDIzLjYzNXoiIGZpbGw9IiM4YmMzNGEiLz48cGF0aCBkPSJNMzkuMzg1IDMyLjU1OGMtMy4xMjMgNC4zMDItOC42NTEgNC41MzMtMTMuODU0IDQuNDQySDE4Ljc1aC0xLjkzOGM0LjQyOC0xLjU5MyA3LjA2My0xLjk3MiA5Ljc1NC0zLjQgNS4wNjgtMi42NjUgMTAuMDc4LTguNDk2IDExLjEyMS0xNC41NjItMS45MyA1LjgzNi03Ljc3OSAxMC44NS0xMy4xMDkgMTIuODg5LTMuNjUyIDEuMzkzLTEwLjI0OCAyLjc0NS0xMC4yNDggMi43NDVsLS4yNjctLjE0NUM5LjU3MyAzMi4yNjggOS40MzcgMjIuMjE0IDE3LjYgMTguOTY4YzMuNTc0LTEuNDIzIDYuOTkzLS42NDEgMTAuODU0LTEuNTkzIDQuMTIyLTEuMDEyIDguODktNC4yMDggMTAuODMtOC4zNzVDNDEuNDU2IDE1LjY2NyA0NC4wNyAyNi4xMDYgMzkuMzg1IDMyLjU1OEwzOS4zODUgMzIuNTU4ek0xNS42NjggMzguNDQ1QzE1LjM4NiAzOC43OTUgMTQuOTU1IDM5IDE0LjUwNSAzOWMtLjgyMyAwLTEuNDk1LS42NzctMS40OTUtMS41cy42NzctMS41IDEuNDk1LTEuNWMuMzQxIDAgLjY3Ny4xMTguOTQxLjMzNkMxNi4wODYgMzYuODU1IDE2LjE4NiAzNy44MDUgMTUuNjY4IDM4LjQ0NUwxNS42NjggMzguNDQ1eiIgZmlsbD0iI2ZmZiIvPjwvc3ZnPg==;" vertex="1" parent="3Qr1FtHoGSZI7Chw_GdT-19">
          <mxGeometry x="150" y="122" width="48" height="48" as="geometry" />
        </mxCell>
        <mxCell id="3Qr1FtHoGSZI7Chw_GdT-25" value="" style="ellipse;shape=cloud;whiteSpace=wrap;html=1;" vertex="1" parent="1">
          <mxGeometry x="490" y="170" width="120" height="80" as="geometry" />
        </mxCell>
        <mxCell id="3Qr1FtHoGSZI7Chw_GdT-27" style="edgeStyle=orthogonalEdgeStyle;rounded=0;orthogonalLoop=1;jettySize=auto;html=1;exitX=1;exitY=0.5;exitDx=0;exitDy=0;exitPerimeter=0;entryX=0;entryY=0.5;entryDx=0;entryDy=0;endArrow=none;endFill=0;" edge="1" parent="1" source="3Qr1FtHoGSZI7Chw_GdT-26" target="3Qr1FtHoGSZI7Chw_GdT-22">
          <mxGeometry relative="1" as="geometry" />
        </mxCell>
        <mxCell id="3Qr1FtHoGSZI7Chw_GdT-26" value="Swagger UI" style="verticalLabelPosition=bottom;html=1;verticalAlign=top;align=center;strokeColor=none;fillColor=#00BEF2;shape=mxgraph.azure.computer;pointerEvents=1;" vertex="1" parent="1">
          <mxGeometry x="99" y="447" width="90" height="77" as="geometry" />
        </mxCell>
        <mxCell id="3Qr1FtHoGSZI7Chw_GdT-28" style="edgeStyle=orthogonalEdgeStyle;rounded=0;orthogonalLoop=1;jettySize=auto;html=1;entryX=0.55;entryY=0.95;entryDx=0;entryDy=0;entryPerimeter=0;dashed=1;endArrow=none;endFill=0;" edge="1" parent="1" source="3Qr1FtHoGSZI7Chw_GdT-20" target="3Qr1FtHoGSZI7Chw_GdT-25">
          <mxGeometry relative="1" as="geometry" />
        </mxCell>
        <mxCell id="3Qr1FtHoGSZI7Chw_GdT-29" value="MongoDB Atlas" style="rounded=1;whiteSpace=wrap;html=1;" vertex="1" parent="1">
          <mxGeometry x="505" y="70" width="120" height="60" as="geometry" />
        </mxCell>
        <mxCell id="3Qr1FtHoGSZI7Chw_GdT-31" value="" style="shape=image;verticalLabelPosition=bottom;labelBackgroundColor=default;verticalAlign=top;aspect=fixed;imageAspect=0;image=data:image/png,iVBORw0KGgoAAAANSUhEUgAAAGAAAABgCAYAAADimHc4AAAACXBIWXMAAAsTAAALEwEAmpwYAAAGZElEQVR4nO2dXWgcVRSAbys+qPj34i/4U60/oL4kmXM2rYiKaBGNLxWs1Qcb9t5NqVr1QRFM8aFaSn2QiobsnrNJEG2rtIpWUKsUq1hbEKoILSpVkFb651+K/TErd5LZTG2a3Zm57p2dOx8cCMnek3vOmTkzc+85s0Lk5OTk5OS0IYrhUS225+EkRS7crgiOS8Z/VBXm2Z6PU/SVC5crxn2KsTYucKBY7b7K9rycoDjQcaYk+HrS+eOif6f/Znt+mUcxvPZf59eF4FXb88s0qgrzFOHYKQPgnwlej+15ZpJFg3ChYtw7nfMnZN/icvcltuebLWpihmJ8vwnnB/Jhf7+YaXvamaHIuCSC833RY2zPOxMURzouVoy/RQ2AYvhDVvFS2/NveyThW9GdX5d1tuff1hQZ70rg/PFURHiPbTva94GL8YekAVAEPy0cvuks2/a0HYpgRWLnB88GjC/atqetUOXuaxXj0SaO7uO+NA7CUa3Ttl1tgyRY3+TRPSoJDjf52bdt29UWKPaw0XJDPbUQHJQEhyKkojm27Us9imBL0w4l3KMlwvXgM9v2pRpJcEe0iyvs1nc5UcbojRzbdqYWRbA5UgAIdyrGXZHuigg/tW1nKilRoTuSI32BHZLhm8jjyLvZtr2pQxF8ED0AuG1CIo2ThBtt25sqJMFsf3M98pEMWyTD59HH4ViRC9fZtjs1SILVMY5+fVu5SRJ+EmesInjZtt2p4JFy99mS8PdYASDcGDN1+cvVS0a8c4TrSIK+eA70ZcOExBtfgZJwHcX4ZYIAvKkI1sQeT/CFcJm+Qby62WWHU6SgYck4kiCAtd6hrmuEq0iGZUmcJxkGFUE5oY5lwlVU1KfYk84AWB33Dioku4SLlIbg+oSO07JKMbyUWI+LewWK4cnkAYDlkvCFpHqKBE8I14j9AMUhIexPeh0Z1wMfC5fQD0BNbTlyo2sAPqPFQCCPOPVQ5hfZJs//NVnBpTp9mNClqHCncAUjaYP9u6A+xd5iMwHAfuEK8ddv8MQAMC5ShL1mgunKEnVNzJCE+004rVSBhYq9h4ycAQwH9NxE1tG9XGYchjVZxfu1mNJXqnTOElnHRL2nqqcNr6fEhftM6XPiQpxw+bkWFj+Yhu6onFmeHl8+MJQyqt6tirzbjAWAcaXIOhHKDmsNA0CFbl3tZjAA2S9flAxfGUtB5a5OLcYCQLBVZB1J+J0xh5ULNxQJbzSlTxJ+K7KOZPzZnMNgtt7RMqaPYbfIOrqi2VgKGppz2cR7I0ydAftF1jGxCqomRDdv93HXRcZSGuERkXUkwzFTDnuMbzmv9Prc840FgPGoyDpxi7DUFLJ0LZ6hm/nMpSA4JLJOxIaK2nQyf+3807QYCwDDLyLrKILvDTnr2P+Q1rJfIRGlBUlNJ4R/1XUyjprRCZtF1klayaYm8/XBus4IjXoNzqqqyDqS8HkzAcA9gc4m3yPUTACyXyUnGR80/dQqdbOeCZ2VwgPCiYJcM2fATlMljqGgXiFcwEzKgB2BvliNeifLXuEKet3dgMO2hfRFbtRz+t1C49UMCR1GsCXQF6tRz8X8H1Ac6DhXL3ypRPkaN5mqM5UMfztVmmjgVWS1cCGV36yX7GxaI1yjWIG5yQIA6wNdiRr1fPFQuIgi2GriqE3SqKevH8JVpK5oiNukRzBU10M4HD+Qjr83QjGui3nkDgY6/Ga9eNeRN4TrqOHCBXH2CHRzXl0H4ysxxv+qtzPtWp8SSuzdHeNlHaviVtv5/8uFOtAoSPKeihYAWD45Nlqjnu6ssWttSlGMK+N0tOifI1y8V9i1MuVIxueaPAOeDsbon5sI2JhkeNaudW2CJK+n0RvTw2mkUaOeZPizxIX5dq1qM0qVzlmS8L1TO9ZbHHx2+kY9eLd32LvSrjXtfjYQ/jhFSukNPjNVo57/4u8q3Gt39hmhv1/M1K+hlwwfBU/Oekk7+Hu4UU8SbpdVfLg40HG63Vlnu8nvcUVdC/SDlF8bSl0L9O/yL3NrIZLwnVDK2dDK/50jTmz2dqfJOkXI0C5YeHcsp1UB4NA+cGh/OKdVASDcPlWFRE6rAsDhWqDJGqGcFqFC1XDhKrmcVgWAJr+4wYnuxjSXN8pQpXROi5ChnoBwr0BO6wJwOHQXNJo7vsWo8Be4ERzPA5CTk5OTI9qMfwFV1vDV0lua1QAAAABJRU5ErkJggg==;" vertex="1" parent="1">
          <mxGeometry x="492" y="43" width="46" height="46" as="geometry" />
        </mxCell>
        <mxCell id="3Qr1FtHoGSZI7Chw_GdT-32" value="" style="shape=image;verticalLabelPosition=bottom;labelBackgroundColor=default;verticalAlign=top;aspect=fixed;imageAspect=0;image=data:image/svg+xml,PHN2ZyB4bWxuczp4bGluaz0iaHR0cDovL3d3dy53My5vcmcvMTk5OS94bGluayIgeG1sbnM9Imh0dHA6Ly93d3cudzMub3JnLzIwMDAvc3ZnIiBoZWlnaHQ9IjQ4cHgiIHdpZHRoPSI0OHB4IiB2aWV3Qm94PSIwLDAsMjU2LDI1NiI+PGcgc3R5bGU9Im1peC1ibGVuZC1tb2RlOiBub3JtYWwiIHRleHQtYW5jaG9yPSJub25lIiBmb250LXNpemU9Im5vbmUiIGZvbnQtd2VpZ2h0PSJub25lIiBmb250LWZhbWlseT0ibm9uZSIgc3Ryb2tlLWRhc2hvZmZzZXQ9IjAiIHN0cm9rZS1kYXNoYXJyYXk9IiIgc3Ryb2tlLW1pdGVybGltaXQ9IjEwIiBzdHJva2UtbGluZWpvaW49Im1pdGVyIiBzdHJva2UtbGluZWNhcD0iYnV0dCIgc3Ryb2tlLXdpZHRoPSIxIiBzdHJva2U9Im5vbmUiIGZpbGwtcnVsZT0ibm9uemVybyIgZmlsbD0ibm9uZSI+PGcgdHJhbnNmb3JtPSJzY2FsZSg1LjMzMzMzLDUuMzMzMzMpIj48Y2lyY2xlIGZpbGw9IiM5NGQ4MmQiIHI9IjIwIiBjeT0iMjQiIGN4PSIyNCIvPjxwYXRoIGZpbGw9IiNmZmZmZmYiIGQ9Ik0zMC40LDMyLjdsLTEuOCwtMi40bDMuNCwtMi41NXYtNy41bC0zLjQsLTIuNTVsMS44LC0yLjRsNC42LDMuNDV2MTAuNXoiLz48cGF0aCBmaWxsPSIjZmZmZmZmIiBkPSJNMTcuNiwzMi43bC00LjYsLTMuNDV2LTEwLjVsNC42LC0zLjQ1bDEuOCwyLjRsLTMuNCwyLjU1djcuNWwzLjQsMi41NXoiLz48Y2lyY2xlIGZpbGw9IiNmZmZmZmYiIHI9IjEuNSIgY3k9IjIzLjUiIGN4PSIxOS41Ii8+PGNpcmNsZSBmaWxsPSIjZmZmZmZmIiByPSIxLjUiIGN5PSIyMy41IiBjeD0iMjQiLz48Y2lyY2xlIGZpbGw9IiNmZmZmZmYiIHI9IjEuNSIgY3k9IjIzLjUiIGN4PSIyOC41Ii8+PC9nPjwvZz48L3N2Zz4=;" vertex="1" parent="1">
          <mxGeometry x="125.5" y="457.5" width="39" height="39" as="geometry" />
        </mxCell>
        <mxCell id="3Qr1FtHoGSZI7Chw_GdT-34" value="Upstash Redis" style="rounded=1;whiteSpace=wrap;html=1;" vertex="1" parent="1">
          <mxGeometry x="487" y="840" width="120" height="60" as="geometry" />
        </mxCell>
        <mxCell id="3Qr1FtHoGSZI7Chw_GdT-33" value="" style="shape=image;verticalLabelPosition=bottom;labelBackgroundColor=default;verticalAlign=top;aspect=fixed;imageAspect=0;image=data:image/png,iVBORw0KGgoAAAANSUhEUgAAAGAAAABgCAYAAADimHc4AAAACXBIWXMAAAsTAAALEwEAmpwYAAAPqUlEQVR4nO1ceXAU15nv3SSb3WxSW87mP2NEH+919+uZ6VFwArGTULWbTTaHE1cSkhB8VHlzOXEqyR64siY6kASyjWEGi0PiMggBOkaADiRZXLaYwWCbGBuby+gwJGZx7NiOCWBA39bXmhEjMUf3mzeA7fmqvv9UPerv997v9x3vtSQVrGAFK1jBClawghWsYAXLZqWS9LfdAfOeTkZ3bLHIa9EgOxkNWuejNnszGrSOxGy2Ybftu6PP778h68MK5t66fObP2nz0962MXGxhBBIeC1qp3WYXYkFreyzI7n5m8uSPefipgiVsazENdFp66yZGziYH3RUASR61rbdiNlsbC5pfGn14wVJbE2N/1+Wns9os/UQkTdC9AjAWDPZS1Gb3PzOZfqqAQZJtDZpf67D0PRFGL2ULei4AJPm5WNBqigWs25qmT/+Q9EG0dpvc2GkZtVss+nq2QB/a3AovrF0DbZ+fkh2AYh8c+MF33e+KIDsRC1rVe2x9kvRBsK0+eke7j74UYWTY7UrfPvP7MDAw4PjggQOwt7J8LACf9sOBGdPhxLLFcPaVIXite6t3egpal6K21RsLsunPTJ78Een9ZL2mWdzh07duYuRdLxTTkuTH98Sgv79/1IeOH4fBRx6GVzc0wPnT/wfJdvCeu3OhJxTuV2M2C8f8fr/0XrXNuv6JLr9e3WbRV3mD3pLkXV/7MgwODIwBIZWdefmYQ0O5AJC0K4ZjQevJWNC66z2Tznb46bfaR3J2T4LaksbbPz8FDiyvhaFDhxwKygbAH+vXOJQkAoBxGdSbUZst3V3su1m63qybsU92+sgCN4Lqxltty+H5gf3PXhH0bACgnT91Ck6uWgH7b/uqcCDiFPXidZHO8ghqNn/i5z+B/n37YOjoURjq7+cCYNSGh+GtZ5+Gl0tnw95bP5sPMEbS2aD5JZCkv7kqQe8oNos6Lb1+M6N/FRX0liyO6ef2O2dA7LezYH94ARztffwKAC6eOePw/59jUTjdthlO1C2D/nmVcOhX98HzM78P+6bdmpfdcFkv2CuYzkaLzaK8rvYWRq9K0Fuy+NCLL47LfO7KVXChO2BBvWnARkaR83mfIy6d7bBZENPHVo/pY2uAwbYZ34O95SXwXF0tHFy/Dg7Mfwj2zymFZ0segNh998K2794ObVNv5gZg28wfwKXz55zg//X4y9yZzxM2gzY/g9XMgDrTgCU6gXtunAC/uOkmCGkq9ATMnNPZaMDweerH9Fjm7HaL/iHiJSAzpsPh9i0wdOTwFeki+oULF1LS9F8GB2BwU8QBpTVoeQIBCy+045Xlnld7V4DBBsuEOmY6gU94AoCE/8eNE+B38iRoMCns5t9dw1Gb7YrZbOZWTftoysD3mOYX2300Or7lmzXwd86AwReeTyuU2QBItrOnT8Nz1VUQ8RuufvupKZ+Gd44chr23TnEViJ22Ba0+E1aZY4OeCYBkx13xiKbCVj//rojZ7HTMtn69c9q0DzuB7/TR27dY5I9eVnvC98z+bcrVzgtAwk71PQGtATPr7+MLZRPXxGpfb6UO+JUA0LQAJPusSUWwyiDwJLdWmOukDouujOQihC4CzwMA2rOls10BkHa1B9jIao9zu1t3C0DC7y8qgl6OHbHLZhelCKM55e+DgwN5A+CFBfNzAyBONytN8QD8+MYJUKHI3NnSbpvBY6YOUoPJH3z0gxsa8gLAmT+cdFoQuQCQlIkIo6DfTJwIy3QNtueQGfUGGNQZOoQoHZbKZBlWGwRyoaH9j4ZhyIUOuAJgeBhO9vZA+xc+5+q3vb68G1paOg6AH8VXezPTHT3hDfwOm8E6ZkCYUscdAEpkGdCrVQU2mpQbiE2TA3BgRR0MHjwIg4ODngF455UhOLp6JfTe/nVPv8sbjEzCnADgP4uKnNW+I8Ansgl/PMBgranDonjgUwKQ8HmqCvU57oiIzaDvlz93ADna0w39T+2Bwed+Dyd6e+BE91YYaG2Bo2tWwXPzKiF670+g44u3cP9Wphffe8tn3IohtPoYrGQmrDANaDB12GIZOQUdAcZUdaWhjwl6VgASXi7LsFwn0HqdtB1a0viem23Y/42vwIs//REMPDQPTrU0wZtPxeD8a6fh2O/+13PQeAutZHHd4jOhVk8ddNcAJLxUliFEVGgyry0Qnf/2LxCd9V/w/JpVcGzXTqfww4lYohUx3t7YtSOnQHr1J2wLmi3TEfBsgfcEQLI/qKmwziQQsfIT5E3FPmf2i3OAlyIt0L/3KRg6nLqtkakdfeHPb8DT/zrtqgQe+b0+Bb/nBYCEY+a0lOamE+MDf6g14rqizgbAkf/+TV6DjjTV4WcZ+d0lABe5AEj2+aoCWEtEBPX8DzbUO9TCC8Brne15Czy2HDCFXarnFvhRJ6Qb64BLuYKAXqkqI/WEIHrq+/UvHQrKNA0bDwCejNg37RbhgcfCCfN3HprJsPp3zaf0U1KVLFej0IoAISHaNVSDZkH01PX1f4cj7W1pC73kAu7QffcKCzpmRB1Z0kiuwBPyRkjXf9UkSZdP41UR8u1yRXlbFAijoq0qsC7HmqIl7tgZRXHGQ1mpADjV3Cgk8H02g82WAUsFB76G0otrDb23o9gy0w5i5ipK1RxFOSsaCBTtWoGivf3OGXBs53an4kY7d/JkzgN3bBNsZAY8Korf477M0GGzz3TqA2dn2ezdaJA19tmmNeYAVYfPaNhk0XP4gutNAguJ5tCJaDBGRVuAVmyZejO8XDYbXrh7JjfNdPsZrDEv92dE+XJDhzafmb53ZLOLsWLfz6Ruy/rOZoucT/WCjYzAUqI5VbFoIKpU2Rlm5LoruGgmONKmXiZ4taNIY8+nx++ud/Skzc5KrYxcyPaSTYzASl2DSkWBfNBTDSXQzNny8FqtNlkG1AgOPD6vkRmw0+NcACtnyesRE6SPBZqaF3qq5qgp3Lzozjzxe62hOzupz2PgUQ82MGOkEsb8nWflNZsUaqkKc/KwK8plGVbomiudyJa/N2D/XXDgV5s611Ae9aA9ifpGWxFIA8upxsXHSB2PGcTpE+WDnhZTDTLt0lQv2u03YbXgNPJRSmE9M2A7x2xgdzy1Hd8hvaIXVK4q3ECg43x0EVGhTBFPTw+mmVMk0wzSQZ3gwONq5aGZEZG1oMUyYXGaHZi2GYf8HiaqkwVx0ROjziyhKg/0VBrXikVUg8VUdehAdDaDvsrQodPPuEaQCc2pEdENrVbl+Mrjy1JQVENYU+RhV5TgQhGcRmLPZxvnCBLTz7UeNMdTO3oOCqOBwsgHBPaGaqkmXLTDAgKPQ5QWy3DSVM/CaltOwYWF11WZByQmZI2cOwI5fK1J4GFBqWw4h8CvyFatZqkpUBu8TMCEAJDsVaoaP9LCB8ZGgzhcXnY1AdB1WGcaTorKQzOJ1FZQa/qYVCoob1+K6SInPbVY1Mn7eUTb7ctiEbaBo1p10sh4/o47RmRbOqxpU6UKRdknkpPna7lNyBpM4pw+drsw3LQJ8Ag6D78nJmCis6wQpT01ZvwWDX7+Za4sR0SCgD5HSYg2HxCNTHMGO2VZdkW6l8TDVVj8YOPNa+C3iaWZUa8z6NvNTF8Ymzr1H66YBTxESHCeovSL7vGMEW2Lr+VRl6EReOVL8gkr/j22F7CuEBl0dGx3J3dIo0Hr9Zht/c/o9aUuP5vexugppA08/4N8np8WtOK0LXhFez2KNlGd5yQWyhJdd4qmJsvkyt8TE7BlOWQzKTUnXlNkbF3YbKOEtx3TvTBmOPmqZrGKbRZw6o4nk0HHwKzPQ4cUq19sebvRnJ02uyRFrOz3e9eb1JMwej7sZfCLNs9BqnxMwLDRtgl7Rm53XtCCx0wDJHx518JoEqc7mU0YeUV7FZ5F9agTbvm9048Hb8VPwHha04/7TWeWgM/gvh+w2tBgXhIXi/SQh7OobvJ30R3SGs7WNP59fdL9AAeAxEtXx6/beM1UNpoahPM0wH9QVeM1hbd5AG7vSI5tgnQnHJzWtEfa6/GbDt2keqaUqr0wkql4AwLnxrW6BhV5oKcKRXFm0qnoafwKa8SZr2B+x+B1+b2ltqP3A7LoTfr7AYoCdRzDGex61jvNNvFAlMQrbWxb4CltPD7TahkOHbg5j++VZjZw0Azujs0eqmdXzTgcwvMUUk0mcWoKFNh8gFEieB6Q3JrGaRbP/YDFHheC5HksmIWT0znSWj5EOywo8Lyt6W7n/hf/4D+H+wF8s+MNZrwFLWhXhHNMI/FyBdYGXoIeFZddXRJ3P8ArPTHi9HhyFW0+mtEh4tAM46QZMWltiJAuBEDo/QCeS331uuZMyPINAAo1XqDDMaKXwPf6R/J3ofcDCNn+qGH8s1SpKFXijxpq0MQBRGOi0hYMQNaDsumKOD8TOoSJB/5PYUp/gWOAy8fSVfWb5bL8lkggSuLHR3juHDcxAit04oqeMr0sXq7w2ibI1xAmTOmpMCEPLMn0Wf25mlZarihvigaiXMH7AZlPuLWkoyeTwEMZ6CndzNdr/r4tT93RMCGHFxLy49VFRX8vubVqVf1epaK8lK/7Adhd9UxPTIMllECFOnZXJIKONIPCirfer4chTJiQZxYScteYq0he7WFNY1WK0lMqyxdFA1Eh4/0AvpEl6kuDMXK8BVdun+19CIMVNI4tBQf9QoiQ5oWq+jlJpJUy9vFKRVlSJsvviAaiFEUbu59X6X5Ao2VCjfjAvx4ipDqkKBOlfFuFps1EehINRInzoZCEaLsHw03g8WsneFZzkeDAhwg5gjceHw4E/lG62latKBMrZbmxTJbPiwZijixDne4ue7oG9wMuhSjtDWvabVftS7mZrFSSPjxXVR+Yoyiv5mNX1DizY28AdPmZM6gXTDNvhymtXUSpIV2vVqVp0yoUZW+JLA+LBqJalWFthvsBO+yRIUyt6ENUSDOE3Pegrn9Ceq/YvIkTb6jStOX5EO2SeIGH9xeWUBVWxb/xJjTolA7jdxwWUfrVMRXre9HyKdqlgucBIUrPhghZu0BVL1+ifr9YhareVKko9WWyfO56AyBESH+Y0vsfYeyT0vvdsDKsVpRZc2T5xLUGIETI7pCuTy9NfEL4g2ZzJ02aUqmqfbyfzOEBIETIu2FC6hcRYl/r979urFpR/qlSVZd5FW0vAIQI+UuYkNDosfCCpbYqTbujQlGOlwoCIETp6TAhZc7wo2DubZ6mFVeq6pOZ6CkLAMfDlN77yIQJV57FL5gHICZOvKFSVR8rV5QzbgAIEfJ0WNdnfmCFNZ9WrWk/rFDVfeWy/HaZojg7I0zpyRAhO8KUloQoDVzr/7FgBStYwQpWsIIVrGAFk65/+39spFnZMTCW9gAAAABJRU5ErkJggg==;" vertex="1" parent="1">
          <mxGeometry x="466" y="820" width="46" height="46" as="geometry" />
        </mxCell>
        <mxCell id="3Qr1FtHoGSZI7Chw_GdT-37" style="edgeStyle=orthogonalEdgeStyle;rounded=0;orthogonalLoop=1;jettySize=auto;html=1;exitX=0.55;exitY=0.95;exitDx=0;exitDy=0;exitPerimeter=0;entryX=0.5;entryY=0;entryDx=0;entryDy=0;endArrow=none;endFill=0;" edge="1" parent="1" source="3Qr1FtHoGSZI7Chw_GdT-35" target="3Qr1FtHoGSZI7Chw_GdT-34">
          <mxGeometry relative="1" as="geometry" />
        </mxCell>
        <mxCell id="3Qr1FtHoGSZI7Chw_GdT-35" value="" style="ellipse;shape=cloud;whiteSpace=wrap;html=1;" vertex="1" parent="1">
          <mxGeometry x="481" y="690" width="120" height="80" as="geometry" />
        </mxCell>
        <mxCell id="3Qr1FtHoGSZI7Chw_GdT-36" style="edgeStyle=orthogonalEdgeStyle;rounded=0;orthogonalLoop=1;jettySize=auto;html=1;entryX=0.5;entryY=1;entryDx=0;entryDy=0;dashed=1;endArrow=none;endFill=0;exitX=0.625;exitY=0.2;exitDx=0;exitDy=0;exitPerimeter=0;" edge="1" parent="1" source="3Qr1FtHoGSZI7Chw_GdT-35" target="3Qr1FtHoGSZI7Chw_GdT-20">
          <mxGeometry relative="1" as="geometry">
            <mxPoint x="566" y="465" as="sourcePoint" />
            <mxPoint x="566" y="256" as="targetPoint" />
          </mxGeometry>
        </mxCell>
        <mxCell id="3Qr1FtHoGSZI7Chw_GdT-38" value="" style="outlineConnect=0;dashed=0;verticalLabelPosition=bottom;verticalAlign=top;align=center;html=1;shape=mxgraph.aws3.cloud_2;fillColor=#F58534;gradientColor=none;" vertex="1" parent="1">
          <mxGeometry x="280" y="250" width="65" height="65" as="geometry" />
        </mxCell>
        <mxCell id="3Qr1FtHoGSZI7Chw_GdT-39" style="edgeStyle=orthogonalEdgeStyle;rounded=0;orthogonalLoop=1;jettySize=auto;html=1;exitX=0.5;exitY=1;exitDx=0;exitDy=0;entryX=0.625;entryY=0.2;entryDx=0;entryDy=0;entryPerimeter=0;endArrow=none;endFill=0;" edge="1" parent="1" source="3Qr1FtHoGSZI7Chw_GdT-29" target="3Qr1FtHoGSZI7Chw_GdT-25">
          <mxGeometry relative="1" as="geometry" />
        </mxCell>
      </root>
    </mxGraphModel>
  </diagram>
</mxfile>
